<?xml version="1.0" encoding="utf-8"?>
<!-- Generator: Adobe Illustrator 23.0.1, SVG Export Plug-In . SVG Version: 6.00 Build 0)  -->
<svg version="1.1" id="Layer_1" xmlns="http://www.w3.org/2000/svg" xmlns:xlink="http://www.w3.org/1999/xlink" x="0px" y="0px"
	 viewBox="0 0 560 179.44" style="enable-background:new 0 0 560 179.44;" xml:space="preserve">
<style type="text/css">
	.st0{fill:#404041;}
	.st1{opacity:0.99;}
	.st2{fill:#B7B74A;}
	.st3{fill:none;}
	.st4{fill:#231F20;stroke:#231F20;stroke-miterlimit:10;}
	.st5{fill:#FFFFFF;}
	.st6{fill:#8E9248;}
	.st7{fill:#EAE553;}
</style>
<g>
	<g>
		<path class="st0" d="M130.83,122.28h4.91v9.62h11.6v-9.62h4.91v24.07h-4.91v-10.71h-11.6v10.71h-4.91V122.28z"/>
		<path class="st0" d="M180.01,135.67h-12.7v6.94h13.98l-0.59,3.74h-18.17v-24.07h18.05v3.74h-13.27v5.91h12.7V135.67z"/>
		<path class="st0" d="M193.91,140.22l-2.31,6.13h-4.84l9.04-24.07h6.14l9.43,24.07h-5.18l-2.41-6.13H193.91z M202.68,136.48
			c-2.08-5.51-3.33-8.79-3.94-10.84h-0.04c-0.64,2.26-2.03,6.14-3.7,10.84H202.68z"/>
		<path class="st0" d="M218.93,122.28h4.91v20.33h13.26l-0.59,3.74h-17.58V122.28z"/>
		<path class="st0" d="M249.87,126.02h-8.13v-3.74h21.17v3.74h-8.11v20.33h-4.92V126.02z"/>
		<path class="st0" d="M270.29,122.28h4.91v9.62h11.6v-9.62h4.91v24.07h-4.91v-10.71h-11.6v10.71h-4.91V122.28z"/>
		<path class="st0" d="M307.76,146.35v-8.62c0-0.26-0.05-0.5-0.21-0.73l-9.1-14.73h5.57c2.15,3.73,5.17,9.03,6.44,11.47
			c1.14-2.37,4.36-7.85,6.51-11.47h5.17l-9.27,14.7c-0.1,0.16-0.19,0.28-0.19,0.72v8.66H307.76z"/>
		<path class="st0" d="M364.09,136.9c0-4.23,0.06-8.82,0.18-11.47h-0.17c-1.19,4.56-4.37,13.38-7.05,20.92h-4.24
			c-2.03-6.44-5.32-16.41-6.48-20.98h-0.16c0.22,2.81,0.32,7.9,0.32,12.02v8.96h-4.51v-24.07h7.32c2.36,6.69,5.11,15.18,5.94,18.59
			h0.05c0.63-2.87,4-12.04,6.49-18.59h7.07v24.07h-4.75V136.9z"/>
		<path class="st0" d="M383.57,140.22l-2.31,6.13h-4.84l9.04-24.07h6.14l9.43,24.07h-5.18l-2.41-6.13H383.57z M392.33,136.48
			c-2.08-5.51-3.33-8.79-3.94-10.84h-0.04c-0.64,2.26-2.03,6.14-3.7,10.84H392.33z"/>
		<path class="st0" d="M413.4,136.38v9.97h-4.82v-24.07h11.07c5.6,0,8.6,2.82,8.6,6.55c0,3.2-1.93,4.99-4.03,5.68
			c1.58,0.47,3.51,1.79,3.51,6.05v1.13c0,1.63-0.02,3.56,0.37,4.65h-4.68c-0.47-1.04-0.51-2.87-0.51-5.33v-0.41
			c0-2.9-0.84-4.23-5.22-4.23H413.4z M413.4,132.74h5.07c3.41,0,4.8-1.19,4.8-3.44c0-2.16-1.54-3.38-4.58-3.38h-5.3V132.74z"/>
		<path class="st0" d="M442.44,126.02h-8.13v-3.74h21.17v3.74h-8.11v20.33h-4.92V126.02z"/>
	</g>
</g>
<g class="st1">
	<g>
		<path class="st2" d="M105.96,91.92c0,0-5.19-6.42-4.18-19.32c0.07-0.92,1.47-1.52,1.94-1.51c0.71,0.02,15.35,0,15.35,0
			c-0.57-0.02,1.81-0.28,1.51,2.49c-0.81,7.47,2.36,11.2,5.78,12.8c2.78,1.3,7.26,1.33,10.14,0.27c3.6-1.33,6-4.76,6.46-7.45
			l0.47-5.03l6.17,24.78c-2.07,1.6-8.67,4.2-17.01,4.6c-8.34,0.4-13.27-1.73-18.67-4.53C108.52,96.21,105.96,91.92,105.96,91.92"/>
		<path class="st2" d="M143.43,74.17l0.12-50.46c0,0,0.07-0.89,1.2-1.02c1.13-0.13,16.01,0,16.01,0s0.93,0,0.87,0.93v54.8
			c0,3.01-0.55,6-1.68,8.78c-0.47,1.17-1.05,2.39-1.75,3.52c-2.27,3.71-5.67,6.13-8.6,8.21"/>
	</g>
	<path class="st2" d="M226.59,77.11c-0.02-1.44-0.02-2.53-0.14-3.93c-1.47-17.83-12.07-31.58-29.88-30.51
		c-8.27,0.5-14.71,3.35-19.87,9.48c-4.55,5.4-6.71,13.16-6.71,21.03c0,16.8,12.64,30.41,28.23,30.41c9.11,0,19.27-2.98,24.96-9.23
		c0,0,0.6-0.87,0-1.67c-0.6-0.8-7.85-9.58-8.36-10c-0.51-0.42-1.24,0.07-1.24,0.07l0.06-0.06c-2.44,2.44-6.04,4.33-10.71,4.67
		c-3.28,0.23-6.6-0.42-8.96-1.73c-2.66-1.48-4.18-4-4.54-6.41c-0.07-0.47,0.28-0.89,0.76-0.89h12.75h12.66l9.54,0.06
		c0.29,0,0.56-0.08,0.81-0.24c0.39-0.25,0.67-0.71,0.66-1.04C226.59,77.12,226.59,77.11,226.59,77.11z M206.13,67.26h-7.91
		l-7.91-0.07c-0.4,0-0.72-0.35-0.68-0.75c0.42-4.36,4.14-7.81,8.6-7.81c4.49,0,8.22,3.5,8.6,7.89
		C206.85,66.91,206.53,67.26,206.13,67.26z"/>
	<path class="st2" d="M286.88,62.54v37.19c0,1.2-0.98,2.18-2.18,2.18h-14.63c-1.2,0-2.18-0.98-2.18-2.18V65.65v-0.19
		c-0.31-3.88-3.29-6.9-7.17-7.21c-4-0.32-7.44,2.31-8.39,5.94l-0.05,0.07l-0.19,1.49c-0.05,0.37-0.07,0.74-0.07,1.11v33.18
		c0,1.2-0.98,2.18-2.18,2.18h-14.63c-1.2,0-2.18-0.98-2.18-2.18V44.96c0-1.2,0.98-2.18,2.18-2.18h14.63c1.2,0,2.18,0.98,2.18,2.18
		v4.2l0,0.01c0.6,0.13,1.51-1.17,1.8-1.47c3.59-3.83,7.73-5.69,13.39-5.69c10.87,0,19.68,8.81,19.68,19.68
		c0,0.35-0.01,0.71-0.03,1.06L286.88,62.54z"/>
	<path class="st2" d="M350,77.11c-0.02-1.44-0.02-2.53-0.14-3.93c-1.47-17.83-12.07-31.58-29.88-30.51
		c-8.27,0.5-14.71,3.35-19.87,9.48c-4.55,5.4-6.71,13.16-6.71,21.03c0,16.8,12.64,30.41,28.23,30.41c9.11,0,19.27-2.98,24.96-9.23
		c0,0,0.6-0.87,0-1.67c-0.6-0.8-7.85-9.58-8.36-10c-0.51-0.42-1.24,0.07-1.24,0.07l0.06-0.06c-2.44,2.44-6.04,4.33-10.71,4.67
		c-3.28,0.23-6.6-0.42-8.96-1.73c-2.66-1.48-4.18-4-4.54-6.41c-0.07-0.47,0.28-0.89,0.76-0.89h12.75h12.66l9.54,0.06
		c0.29,0,0.56-0.08,0.81-0.24c0.39-0.25,0.67-0.71,0.66-1.04C350,77.12,350,77.11,350,77.11z M329.53,67.26h-7.91l-7.91-0.07
		c-0.4,0-0.72-0.35-0.68-0.75c0.42-4.36,4.14-7.81,8.6-7.81c4.49,0,8.22,3.5,8.6,7.89C330.26,66.91,329.94,67.26,329.53,67.26z"/>
	<path class="st2" d="M392.78,43.12h-10.8v-3.29c0-2.3,1.88-4.17,4.18-4.15l5.18,0.03c1.16,0.01,2.11-0.94,2.1-2.1l-0.05-9.24
		c0-1.11-0.9-2.01-2.28-2.18l-14.13,0.36c-7.57,0.16-13.94,6.16-13.94,13.99v2.58v4h-6.14c-1.18,0-2.13,0.96-2.13,2.13v11.07
		c0,1.18,0.96,2.13,2.13,2.13h6.14v41.41c0,1.36,1.1,2.47,2.47,2.47h14c1.36,0,2.47-1.1,2.47-2.47V58.46h10.8
		c1.18,0,2.13-0.96,2.13-2.13V45.25C394.92,44.08,393.96,43.12,392.78,43.12z"/>
	<path class="st2" d="M452.82,61.89c-0.15-3.08-0.75-5.93-2.58-8.51c-1.3-1.83-4.05-4.49-6.05-5.78
		c-5.78-3.73-11.43-4.98-18.85-4.98c-7.46,0-14.07,1.93-19.01,5.78c-3.95,3.08-5.81,7.11-6.43,11.62l0.05,0c0,0-0.44,1.34,0.71,1.41
		c1.15,0.07,17.11,2.2,17.11,2.2l-0.03-0.01c0.94-2.76,4.19-4.79,8.06-4.79c4.6,0,8.07,1.71,8.34,6.44
		c0.06,1.05-0.01,2.04-0.59,2.91c0,0-13.17-1.03-20.66,0.77c-6.06,1.46-9.32,4.65-10.05,5.63c-0.18,0.24-0.36,0.48-0.55,0.71
		c-2.31,2.87-3.29,6.51-3.71,10.65c-0.8,7.79,4.4,14.3,12.39,16.68c1.41,0.42,2.9,0.62,4.43,0.62c6.57,0,14.43-0.66,17.76-5.64
		c0.35-0.52,0.86-0.27,0.86,0.36v2.4c0,1.27,1.34,2.3,2.61,2.3h13.94c1.27,0,2.3-1.03,2.3-2.3V61.82L452.82,61.89z M434.08,81.96
		c0,4.29-3.51,7.8-7.8,7.8h-3.96c-2.77,0-5.04-2.27-5.04-5.04v0c0-3.39,2.78-6.17,6.17-6.17h10.07c0.31,0,0.57,0.25,0.57,0.57V81.96
		z"/>
</g>
<path class="st3" d="M0,136.13l0,43.23L0,136.13z"/>
<line class="st2" x1="0" y1="136.13" x2="0" y2="136.71"/>
<path class="st4" d="M0,136.13"/>
<path class="st5" d="M0,179.44"/>
<path class="st5" d="M0,179.44v-43.31V179.44z"/>
<path class="st6" d="M153.07,59.5c0,0,2.32,17.3-10.55,25.82c-4.76,3.15-10.64,4.31-16.9,3.95c-7.78-0.45-16.15-5.03-23.72-9.3v0
	c0.37,3.69,1.49,7.27,3.3,10.52l0.1,0.18c6.45,10.19,17.58,11.55,17.58,11.55s10.66-4.3,13.51-5.83c2.86-1.53,9.95-5.58,11.06-7.14
	C147.46,89.25,162.29,77.4,153.07,59.5z"/>
<path class="st6" d="M119.01,248.19"/>
<path class="st7" d="M152.53,22.63c0,0-10.72,16.41,0,35.99c10.72,19.58-6.64,32.22-6.64,32.22s-18.3,14.36-39.38,1.84
	c0.81,0.99,2.61,3.24,5.7,5.34c2.06,1.4,4.92,2.66,7.62,3.7c4.42,1.7,9.34,2.1,11.92,1.88c4.94-0.43,10.17-0.89,15.16-3.17
	c3.43-1.57,6.37-4.02,9.11-6.83c0,0,3.93-3.97,5.29-11.32c0,0,0.31,1,0.31-5.79c0-6.79,0-52.87,0-52.87s-0.04-0.91-0.75-0.92
	C160.17,22.68,152.53,22.63,152.53,22.63z"/>
</svg>
